<svg xmlns="http://www.w3.org/2000/svg" width="229.43" height="35" viewBox="0 0 229.43 35"><rect class="svg__rect" x="0" y="0" width="91.76" height="35" fill="#5E5E5E"/><rect class="svg__rect" x="89.76" y="0" width="139.67000000000002" height="35" fill="#0F80C1"/><path class="svg__text" d="M19.57 22L14.22 22L14.22 13.47L15.70 13.47L15.70 20.82L19.57 20.82L19.57 22ZM25.26 22L23.79 22L23.79 13.47L25.26 13.47L25.26 22ZM29.80 18.19L29.80 18.19L29.80 17.39Q29.80 16.19 30.23 15.27Q30.66 14.35 31.46 13.85Q32.26 13.35 33.31 13.35L33.31 13.35Q34.72 13.35 35.58 14.12Q36.44 14.89 36.58 16.29L36.58 16.29L35.11 16.29Q35.00 15.37 34.57 14.96Q34.14 14.55 33.31 14.55L33.31 14.55Q32.34 14.55 31.82 15.26Q31.30 15.96 31.29 17.33L31.29 17.33L31.29 18.09Q31.29 19.47 31.79 20.20Q32.28 20.92 33.24 20.92L33.24 20.92Q34.11 20.92 34.55 20.53Q34.99 20.14 35.11 19.22L35.11 19.22L36.58 19.22Q36.45 20.59 35.57 21.35Q34.70 22.12 33.24 22.12L33.24 22.12Q32.22 22.12 31.44 21.63Q30.66 21.15 30.24 20.26Q29.82 19.37 29.80 18.19ZM46.47 22L40.89 22L40.89 13.47L46.43 13.47L46.43 14.66L42.38 14.66L42.38 17.02L45.88 17.02L45.88 18.19L42.38 18.19L42.38 20.82L46.47 20.82L46.47 22ZM52.15 22L50.67 22L50.67 13.47L52.15 13.47L55.97 19.54L55.97 13.47L57.44 13.47L57.44 22L55.95 22L52.15 15.95L52.15 22ZM61.74 19.42L61.74 19.42L63.23 19.42Q63.23 20.15 63.71 20.55Q64.19 20.95 65.08 20.95L65.08 20.95Q65.86 20.95 66.25 20.63Q66.64 20.32 66.64 19.80L66.64 19.80Q66.64 19.24 66.24 18.94Q65.84 18.63 64.81 18.32Q63.78 18.01 63.17 17.63L63.17 17.63Q62.01 16.90 62.01 15.72L62.01 15.72Q62.01 14.69 62.85 14.02Q63.69 13.35 65.03 13.35L65.03 13.35Q65.92 13.35 66.62 13.68Q67.31 14.01 67.71 14.61Q68.11 15.22 68.11 15.96L68.11 15.96L66.64 15.96Q66.64 15.29 66.22 14.91Q65.80 14.54 65.02 14.54L65.02 14.54Q64.29 14.54 63.89 14.85Q63.49 15.16 63.49 15.71L63.49 15.71Q63.49 16.18 63.92 16.50Q64.36 16.81 65.35 17.10Q66.35 17.40 66.95 17.78Q67.56 18.16 67.84 18.65Q68.12 19.13 68.12 19.79L68.12 19.79Q68.12 20.86 67.30 21.49Q66.48 22.12 65.08 22.12L65.08 22.12Q64.16 22.12 63.38 21.77Q62.60 21.43 62.17 20.83Q61.74 20.22 61.74 19.42ZM77.98 22L72.41 22L72.41 13.47L77.94 13.47L77.94 14.66L73.89 14.66L73.89 17.02L77.39 17.02L77.39 18.19L73.89 18.19L73.89 20.82L77.98 20.82L77.98 22Z" fill="#FFFFFF"/><path class="svg__text" d="M103.52 17.80L103.52 17.80Q103.52 16.54 104.12 15.54Q104.72 14.55 105.78 13.99Q106.85 13.43 108.20 13.43L108.20 13.43Q109.37 13.43 110.31 13.83Q111.25 14.22 111.87 14.97L111.87 14.97L110.36 16.33Q109.51 15.40 108.34 15.40L108.34 15.40Q108.32 15.40 108.32 15.40L108.32 15.40Q107.24 15.40 106.58 16.06Q105.92 16.71 105.92 17.80L105.92 17.80Q105.92 18.50 106.22 19.04Q106.52 19.59 107.06 19.89Q107.60 20.20 108.30 20.20L108.30 20.20Q108.98 20.20 109.58 19.93L109.58 19.93L109.58 17.62L111.68 17.62L111.68 21.10Q110.96 21.61 110.02 21.89Q109.09 22.17 108.15 22.17L108.15 22.17Q106.83 22.17 105.77 21.61Q104.72 21.05 104.12 20.05Q103.52 19.06 103.52 17.80ZM119.00 22L116.67 22L116.67 13.60L118.63 13.60L122.33 18.07L122.33 13.60L124.66 13.60L124.66 22L122.71 22L119.00 17.52L119.00 22ZM129.75 18.26L129.75 18.26L129.75 13.60L132.13 13.60L132.13 18.19Q132.13 20.20 133.73 20.20L133.73 20.20Q135.31 20.20 135.31 18.19L135.31 18.19L135.31 13.60L137.65 13.60L137.65 18.26Q137.65 20.13 136.61 21.15Q135.57 22.17 133.70 22.17L133.70 22.17Q131.83 22.17 130.79 21.15Q129.75 20.13 129.75 18.26ZM151.13 22L148.70 22L152.41 13.60L154.75 13.60L158.47 22L156.00 22L155.34 20.37L151.79 20.37L151.13 22ZM153.57 15.93L152.48 18.61L154.64 18.61L153.57 15.93ZM162.20 17.80L162.20 17.80Q162.20 16.54 162.79 15.54Q163.39 14.55 164.46 13.99Q165.53 13.43 166.87 13.43L166.87 13.43Q168.05 13.43 168.99 13.83Q169.92 14.22 170.55 14.97L170.55 14.97L169.03 16.33Q168.19 15.40 167.01 15.40L167.01 15.40Q167.00 15.40 166.99 15.40L166.99 15.40Q165.92 15.40 165.25 16.06Q164.59 16.71 164.59 17.80L164.59 17.80Q164.59 18.50 164.89 19.04Q165.20 19.59 165.73 19.89Q166.27 20.20 166.97 20.20L166.97 20.20Q167.66 20.20 168.25 19.93L168.25 19.93L168.25 17.62L170.35 17.62L170.35 21.10Q169.63 21.61 168.70 21.89Q167.76 22.17 166.82 22.17L166.82 22.17Q165.51 22.17 164.45 21.61Q163.39 21.05 162.79 20.05Q162.20 19.06 162.20 17.80ZM177.72 22L175.34 22L175.34 13.60L179.19 13.60Q180.32 13.60 181.17 13.98Q182.01 14.35 182.46 15.06Q182.92 15.76 182.92 16.71L182.92 16.71Q182.92 17.66 182.46 18.35Q182.01 19.05 181.17 19.42Q180.32 19.80 179.19 19.80L179.19 19.80L177.72 19.80L177.72 22ZM177.72 15.47L177.72 17.93L179.04 17.93Q179.77 17.93 180.15 17.61Q180.52 17.29 180.52 16.71L180.52 16.71Q180.52 16.12 180.15 15.80Q179.77 15.47 179.04 15.47L179.04 15.47L177.72 15.47ZM194.06 22L187.67 22L187.67 13.60L190.05 13.60L190.05 20.11L194.06 20.11L194.06 22ZM201.06 22L197.47 13.60L200.04 13.60L202.32 19.07L204.65 13.60L207.00 13.60L203.40 22L201.06 22ZM210.27 21.34L210.27 21.34L211.13 19.55Q211.62 19.88 212.24 20.07Q212.86 20.25 213.46 20.25L213.46 20.25Q214.07 20.25 214.43 20.02Q214.79 19.79 214.79 19.37L214.79 19.37Q214.79 18.55 213.51 18.55L213.51 18.55L212.51 18.55L212.51 17.05L214.01 15.44L210.70 15.44L210.70 13.60L216.77 13.60L216.77 15.09L215.03 16.96Q216.07 17.18 216.63 17.82Q217.19 18.46 217.19 19.37L217.19 19.37Q217.19 20.11 216.79 20.75Q216.38 21.39 215.56 21.78Q214.74 22.17 213.53 22.17L213.53 22.17Q212.64 22.17 211.77 21.95Q210.90 21.74 210.27 21.34Z" fill="#FFFFFF" x="102.76"/></svg>